<mxfile host="Electron" agent="Mozilla/5.0 (Windows NT 10.0; Win64; x64) AppleWebKit/537.36 (KHTML, like Gecko) draw.io/27.0.9 Chrome/134.0.6998.205 Electron/35.4.0 Safari/537.36" version="27.0.9" pages="4">
  <diagram name="base" id="1am3xHIFzIGpe7W3hmKn">
    <mxGraphModel dx="1426" dy="841" grid="1" gridSize="10" guides="1" tooltips="1" connect="1" arrows="1" fold="1" page="1" pageScale="1" pageWidth="827" pageHeight="1169" math="0" shadow="0">
      <root>
        <mxCell id="0" />
        <mxCell id="1" parent="0" />
        <mxCell id="91bN2bAzkrpOyi--RMyB-4" value="" style="edgeStyle=orthogonalEdgeStyle;rounded=0;orthogonalLoop=1;jettySize=auto;html=1;strokeWidth=2;endArrow=none;startFill=1;startArrow=classic;" parent="1" edge="1">
          <mxGeometry relative="1" as="geometry">
            <mxPoint x="369" y="240" as="sourcePoint" />
            <mxPoint x="369" y="320" as="targetPoint" />
          </mxGeometry>
        </mxCell>
        <mxCell id="91bN2bAzkrpOyi--RMyB-1" value="&lt;font face=&quot;Times New Roman&quot; style=&quot;font-size: 60px; line-height: 100%;&quot;&gt;π&lt;/font&gt;" style="rounded=0;whiteSpace=wrap;html=1;fillColor=#60a917;strokeColor=#2D7600;spacing=-2;labelPosition=center;verticalLabelPosition=middle;align=center;verticalAlign=middle;fontColor=#ffffff;" parent="1" vertex="1">
          <mxGeometry x="310" y="180" width="120" height="60" as="geometry" />
        </mxCell>
        <mxCell id="91bN2bAzkrpOyi--RMyB-2" value="&lt;font style=&quot;font-size: 16px; color: rgb(255, 0, 0);&quot;&gt;&lt;b&gt;R.id, S.cdate&lt;/b&gt;&lt;/font&gt;" style="text;html=1;align=center;verticalAlign=middle;resizable=0;points=[];autosize=1;strokeColor=none;fillColor=none;" parent="1" vertex="1">
          <mxGeometry x="430" y="195" width="120" height="30" as="geometry" />
        </mxCell>
        <mxCell id="91bN2bAzkrpOyi--RMyB-6" value="" style="edgeStyle=orthogonalEdgeStyle;rounded=1;orthogonalLoop=1;jettySize=auto;html=1;curved=1;startArrow=classic;startFill=1;endArrow=none;strokeWidth=2;entryX=0.5;entryY=0;entryDx=0;entryDy=0;" parent="1" target="91bN2bAzkrpOyi--RMyB-5" edge="1">
          <mxGeometry relative="1" as="geometry">
            <mxPoint x="390" y="380" as="sourcePoint" />
            <mxPoint x="510" y="490" as="targetPoint" />
            <Array as="points">
              <mxPoint x="390" y="430" />
              <mxPoint x="490" y="430" />
            </Array>
          </mxGeometry>
        </mxCell>
        <mxCell id="91bN2bAzkrpOyi--RMyB-3" value="&lt;div style=&quot;line-height: 19px; white-space: pre;&quot;&gt;&lt;font face=&quot;Times New Roman&quot; style=&quot;font-size: 60px; line-height: 100%;&quot;&gt;⋈&lt;/font&gt;&lt;/div&gt;" style="rounded=0;whiteSpace=wrap;html=1;fillColor=#f8cecc;strokeColor=#b85450;spacing=-2;labelPosition=center;verticalLabelPosition=middle;align=center;verticalAlign=middle;" parent="1" vertex="1">
          <mxGeometry x="310" y="320" width="120" height="60" as="geometry" />
        </mxCell>
        <mxCell id="91bN2bAzkrpOyi--RMyB-5" value="&lt;div style=&quot;line-height: 19px; white-space: pre;&quot;&gt;&lt;div style=&quot;line-height: 19px;&quot;&gt;&lt;span&gt;&lt;font style=&quot;font-size: 60px; line-height: 100%;&quot; face=&quot;Times New Roman&quot;&gt;σ&lt;/font&gt;&lt;/span&gt;&lt;/div&gt;&lt;/div&gt;" style="rounded=0;whiteSpace=wrap;html=1;fillColor=#6a00ff;strokeColor=#3700CC;spacing=-2;labelPosition=center;verticalLabelPosition=middle;align=center;verticalAlign=middle;fontColor=#ffffff;" parent="1" vertex="1">
          <mxGeometry x="430" y="465" width="120" height="60" as="geometry" />
        </mxCell>
        <mxCell id="91bN2bAzkrpOyi--RMyB-7" value="&lt;font style=&quot;font-size: 16px; color: rgb(255, 0, 0);&quot;&gt;&lt;b style=&quot;&quot;&gt;R.id = S.id&lt;/b&gt;&lt;/font&gt;" style="text;html=1;align=center;verticalAlign=middle;resizable=0;points=[];autosize=1;strokeColor=none;fillColor=none;" parent="1" vertex="1">
          <mxGeometry x="430" y="335" width="100" height="30" as="geometry" />
        </mxCell>
        <mxCell id="91bN2bAzkrpOyi--RMyB-9" value="&lt;div style=&quot;line-height: 19px; white-space: pre;&quot;&gt;&lt;div style=&quot;line-height: 19px;&quot;&gt;&lt;font face=&quot;Times New Roman&quot;&gt;&lt;span style=&quot;font-size: 60px; line-height: 100%;&quot;&gt;R&lt;/span&gt;&lt;/font&gt;&lt;/div&gt;&lt;/div&gt;" style="rounded=0;whiteSpace=wrap;html=1;fillColor=#dae8fc;strokeColor=#6c8ebf;spacing=-2;labelPosition=center;verticalLabelPosition=middle;align=center;verticalAlign=middle;" parent="1" vertex="1">
          <mxGeometry x="190" y="535" width="120" height="60" as="geometry" />
        </mxCell>
        <mxCell id="91bN2bAzkrpOyi--RMyB-11" value="" style="edgeStyle=orthogonalEdgeStyle;rounded=0;orthogonalLoop=1;jettySize=auto;html=1;strokeWidth=3;" parent="1" source="91bN2bAzkrpOyi--RMyB-10" target="91bN2bAzkrpOyi--RMyB-5" edge="1">
          <mxGeometry relative="1" as="geometry">
            <Array as="points">
              <mxPoint x="460" y="580" />
              <mxPoint x="460" y="580" />
            </Array>
          </mxGeometry>
        </mxCell>
        <mxCell id="91bN2bAzkrpOyi--RMyB-10" value="&lt;div style=&quot;line-height: 19px; white-space: pre;&quot;&gt;&lt;div style=&quot;line-height: 19px;&quot;&gt;&lt;font face=&quot;Times New Roman&quot;&gt;&lt;span style=&quot;font-size: 60px; line-height: 100%;&quot;&gt;S&lt;/span&gt;&lt;/font&gt;&lt;/div&gt;&lt;/div&gt;" style="rounded=0;whiteSpace=wrap;html=1;fillColor=#dae8fc;strokeColor=#6c8ebf;spacing=-2;labelPosition=center;verticalLabelPosition=middle;align=center;verticalAlign=middle;" parent="1" vertex="1">
          <mxGeometry x="430" y="560" width="120" height="60" as="geometry" />
        </mxCell>
        <mxCell id="91bN2bAzkrpOyi--RMyB-12" value="&lt;span style=&quot;font-size: 16px;&quot;&gt;&lt;b&gt;&lt;font style=&quot;color: rgb(255, 0, 0);&quot;&gt;value &amp;gt; 100&lt;/font&gt;&lt;/b&gt;&lt;/span&gt;" style="text;html=1;align=center;verticalAlign=middle;resizable=0;points=[];autosize=1;strokeColor=none;fillColor=none;" parent="1" vertex="1">
          <mxGeometry x="550" y="480" width="110" height="30" as="geometry" />
        </mxCell>
        <mxCell id="91bN2bAzkrpOyi--RMyB-13" style="edgeStyle=orthogonalEdgeStyle;rounded=1;orthogonalLoop=1;jettySize=auto;html=1;entryX=0.308;entryY=1.017;entryDx=0;entryDy=0;entryPerimeter=0;curved=1;strokeWidth=2;" parent="1" source="91bN2bAzkrpOyi--RMyB-9" target="91bN2bAzkrpOyi--RMyB-3" edge="1">
          <mxGeometry relative="1" as="geometry" />
        </mxCell>
        <mxCell id="91bN2bAzkrpOyi--RMyB-18" value="" style="edgeStyle=orthogonalEdgeStyle;rounded=0;orthogonalLoop=1;jettySize=auto;html=1;strokeWidth=2;endArrow=none;startFill=1;startArrow=classic;" parent="1" edge="1">
          <mxGeometry relative="1" as="geometry">
            <mxPoint x="370" y="129" as="sourcePoint" />
            <mxPoint x="370" y="179" as="targetPoint" />
          </mxGeometry>
        </mxCell>
        <mxCell id="rVBNGELOUQYwVsL5YlIT-1" value="&lt;font style=&quot;font-size: 16px;&quot;&gt;&lt;b&gt;Fig.1. DAG of Query Plan&lt;/b&gt;&lt;/font&gt;" style="text;html=1;align=center;verticalAlign=middle;resizable=0;points=[];autosize=1;strokeColor=none;fillColor=none;" parent="1" vertex="1">
          <mxGeometry x="285" y="630" width="210" height="30" as="geometry" />
        </mxCell>
      </root>
    </mxGraphModel>
  </diagram>
  <diagram name="base-pipeline" id="mKEl4lPJ4pg4xCGbK55Z">
    <mxGraphModel dx="1426" dy="841" grid="1" gridSize="10" guides="1" tooltips="1" connect="1" arrows="1" fold="1" page="1" pageScale="1" pageWidth="827" pageHeight="1169" math="0" shadow="0">
      <root>
        <mxCell id="XX8UF0sYBeRdhr-RkjJm-0" />
        <mxCell id="XX8UF0sYBeRdhr-RkjJm-1" parent="XX8UF0sYBeRdhr-RkjJm-0" />
        <mxCell id="XX8UF0sYBeRdhr-RkjJm-2" value="" style="edgeStyle=orthogonalEdgeStyle;rounded=0;orthogonalLoop=1;jettySize=auto;html=1;strokeWidth=2;endArrow=none;startFill=1;startArrow=classic;exitX=0.5;exitY=1;exitDx=0;exitDy=0;" edge="1" parent="XX8UF0sYBeRdhr-RkjJm-1" source="XX8UF0sYBeRdhr-RkjJm-3">
          <mxGeometry relative="1" as="geometry">
            <mxPoint x="369" y="240" as="sourcePoint" />
            <mxPoint x="369" y="320" as="targetPoint" />
          </mxGeometry>
        </mxCell>
        <mxCell id="XX8UF0sYBeRdhr-RkjJm-3" value="&lt;font face=&quot;Times New Roman&quot; style=&quot;font-size: 60px; line-height: 100%;&quot;&gt;π&lt;/font&gt;" style="rounded=0;whiteSpace=wrap;html=1;fillColor=#60a917;strokeColor=#2D7600;spacing=-2;labelPosition=center;verticalLabelPosition=middle;align=center;verticalAlign=middle;fontColor=#ffffff;" vertex="1" parent="XX8UF0sYBeRdhr-RkjJm-1">
          <mxGeometry x="310" y="195" width="120" height="60" as="geometry" />
        </mxCell>
        <mxCell id="XX8UF0sYBeRdhr-RkjJm-4" value="&lt;font style=&quot;font-size: 16px; color: rgb(255, 0, 0);&quot;&gt;&lt;b&gt;R.id, S.cdate&lt;/b&gt;&lt;/font&gt;" style="text;html=1;align=center;verticalAlign=middle;resizable=0;points=[];autosize=1;strokeColor=none;fillColor=none;" vertex="1" parent="XX8UF0sYBeRdhr-RkjJm-1">
          <mxGeometry x="430" y="195" width="120" height="30" as="geometry" />
        </mxCell>
        <mxCell id="XX8UF0sYBeRdhr-RkjJm-5" value="" style="edgeStyle=orthogonalEdgeStyle;rounded=1;orthogonalLoop=1;jettySize=auto;html=1;curved=1;startArrow=classic;startFill=1;endArrow=none;strokeWidth=2;entryX=0.5;entryY=0;entryDx=0;entryDy=0;" edge="1" parent="XX8UF0sYBeRdhr-RkjJm-1" target="XX8UF0sYBeRdhr-RkjJm-7">
          <mxGeometry relative="1" as="geometry">
            <mxPoint x="390" y="380" as="sourcePoint" />
            <mxPoint x="510" y="490" as="targetPoint" />
            <Array as="points">
              <mxPoint x="390" y="430" />
              <mxPoint x="490" y="430" />
            </Array>
          </mxGeometry>
        </mxCell>
        <mxCell id="XX8UF0sYBeRdhr-RkjJm-6" value="&lt;div style=&quot;line-height: 19px; white-space: pre;&quot;&gt;&lt;font face=&quot;Times New Roman&quot; style=&quot;font-size: 60px; line-height: 100%;&quot;&gt;⋈&lt;/font&gt;&lt;/div&gt;" style="rounded=0;whiteSpace=wrap;html=1;fillColor=#f8cecc;strokeColor=#b85450;spacing=-2;labelPosition=center;verticalLabelPosition=middle;align=center;verticalAlign=middle;" vertex="1" parent="XX8UF0sYBeRdhr-RkjJm-1">
          <mxGeometry x="310" y="320" width="120" height="60" as="geometry" />
        </mxCell>
        <mxCell id="XX8UF0sYBeRdhr-RkjJm-7" value="&lt;div style=&quot;line-height: 19px; white-space: pre;&quot;&gt;&lt;div style=&quot;line-height: 19px;&quot;&gt;&lt;span&gt;&lt;font style=&quot;font-size: 60px; line-height: 100%;&quot; face=&quot;Times New Roman&quot;&gt;σ&lt;/font&gt;&lt;/span&gt;&lt;/div&gt;&lt;/div&gt;" style="rounded=0;whiteSpace=wrap;html=1;fillColor=#6a00ff;strokeColor=#3700CC;spacing=-2;labelPosition=center;verticalLabelPosition=middle;align=center;verticalAlign=middle;fontColor=#ffffff;" vertex="1" parent="XX8UF0sYBeRdhr-RkjJm-1">
          <mxGeometry x="430" y="465" width="120" height="60" as="geometry" />
        </mxCell>
        <mxCell id="XX8UF0sYBeRdhr-RkjJm-8" value="&lt;font style=&quot;font-size: 16px; color: rgb(255, 0, 0);&quot;&gt;&lt;b style=&quot;&quot;&gt;R.id = S.id&lt;/b&gt;&lt;/font&gt;" style="text;html=1;align=center;verticalAlign=middle;resizable=0;points=[];autosize=1;strokeColor=none;fillColor=none;" vertex="1" parent="XX8UF0sYBeRdhr-RkjJm-1">
          <mxGeometry x="430" y="335" width="100" height="30" as="geometry" />
        </mxCell>
        <mxCell id="XX8UF0sYBeRdhr-RkjJm-9" value="&lt;div style=&quot;line-height: 19px; white-space: pre;&quot;&gt;&lt;div style=&quot;line-height: 19px;&quot;&gt;&lt;font face=&quot;Times New Roman&quot;&gt;&lt;span style=&quot;font-size: 60px; line-height: 100%;&quot;&gt;R&lt;/span&gt;&lt;/font&gt;&lt;/div&gt;&lt;/div&gt;" style="rounded=0;whiteSpace=wrap;html=1;fillColor=#dae8fc;strokeColor=#6c8ebf;spacing=-2;labelPosition=center;verticalLabelPosition=middle;align=center;verticalAlign=middle;" vertex="1" parent="XX8UF0sYBeRdhr-RkjJm-1">
          <mxGeometry x="190" y="535" width="120" height="60" as="geometry" />
        </mxCell>
        <mxCell id="XX8UF0sYBeRdhr-RkjJm-10" value="" style="edgeStyle=orthogonalEdgeStyle;rounded=0;orthogonalLoop=1;jettySize=auto;html=1;strokeWidth=3;" edge="1" parent="XX8UF0sYBeRdhr-RkjJm-1" source="XX8UF0sYBeRdhr-RkjJm-11" target="XX8UF0sYBeRdhr-RkjJm-7">
          <mxGeometry relative="1" as="geometry">
            <Array as="points">
              <mxPoint x="460" y="580" />
              <mxPoint x="460" y="580" />
            </Array>
          </mxGeometry>
        </mxCell>
        <mxCell id="XX8UF0sYBeRdhr-RkjJm-11" value="&lt;div style=&quot;line-height: 19px; white-space: pre;&quot;&gt;&lt;div style=&quot;line-height: 19px;&quot;&gt;&lt;font face=&quot;Times New Roman&quot;&gt;&lt;span style=&quot;font-size: 60px; line-height: 100%;&quot;&gt;S&lt;/span&gt;&lt;/font&gt;&lt;/div&gt;&lt;/div&gt;" style="rounded=0;whiteSpace=wrap;html=1;fillColor=#dae8fc;strokeColor=#6c8ebf;spacing=-2;labelPosition=center;verticalLabelPosition=middle;align=center;verticalAlign=middle;" vertex="1" parent="XX8UF0sYBeRdhr-RkjJm-1">
          <mxGeometry x="430" y="560" width="120" height="60" as="geometry" />
        </mxCell>
        <mxCell id="XX8UF0sYBeRdhr-RkjJm-12" value="&lt;span style=&quot;font-size: 16px;&quot;&gt;&lt;b&gt;&lt;font style=&quot;color: rgb(255, 0, 0);&quot;&gt;value &amp;gt; 100&lt;/font&gt;&lt;/b&gt;&lt;/span&gt;" style="text;html=1;align=center;verticalAlign=middle;resizable=0;points=[];autosize=1;strokeColor=none;fillColor=none;" vertex="1" parent="XX8UF0sYBeRdhr-RkjJm-1">
          <mxGeometry x="550" y="480" width="110" height="30" as="geometry" />
        </mxCell>
        <mxCell id="XX8UF0sYBeRdhr-RkjJm-13" style="edgeStyle=orthogonalEdgeStyle;rounded=1;orthogonalLoop=1;jettySize=auto;html=1;entryX=0.308;entryY=1.017;entryDx=0;entryDy=0;entryPerimeter=0;curved=1;strokeWidth=2;" edge="1" parent="XX8UF0sYBeRdhr-RkjJm-1" source="XX8UF0sYBeRdhr-RkjJm-9" target="XX8UF0sYBeRdhr-RkjJm-6">
          <mxGeometry relative="1" as="geometry" />
        </mxCell>
        <mxCell id="XX8UF0sYBeRdhr-RkjJm-14" value="" style="edgeStyle=orthogonalEdgeStyle;rounded=0;orthogonalLoop=1;jettySize=auto;html=1;strokeWidth=2;endArrow=none;startFill=1;startArrow=classic;" edge="1" parent="XX8UF0sYBeRdhr-RkjJm-1">
          <mxGeometry relative="1" as="geometry">
            <mxPoint x="370" y="140" as="sourcePoint" />
            <mxPoint x="370" y="195" as="targetPoint" />
          </mxGeometry>
        </mxCell>
        <mxCell id="XX8UF0sYBeRdhr-RkjJm-15" value="&lt;span style=&quot;font-size: 16px;&quot;&gt;&lt;b&gt;Pipeline Task&lt;/b&gt;&lt;/span&gt;" style="text;html=1;align=center;verticalAlign=middle;resizable=0;points=[];autosize=1;strokeColor=none;fillColor=none;" vertex="1" parent="XX8UF0sYBeRdhr-RkjJm-1">
          <mxGeometry x="310" y="640" width="120" height="30" as="geometry" />
        </mxCell>
        <mxCell id="uGJgDD96r3Z0HvsTjR3U-0" value="" style="rounded=0;whiteSpace=wrap;html=1;fillColor=none;dashed=1;strokeColor=#FF0000;strokeWidth=2;" vertex="1" parent="XX8UF0sYBeRdhr-RkjJm-1">
          <mxGeometry x="150" y="490" width="180" height="120" as="geometry" />
        </mxCell>
        <mxCell id="uGJgDD96r3Z0HvsTjR3U-1" value="&lt;font style=&quot;font-size: 15px; color: light-dark(rgb(0, 0, 0), rgb(0, 0, 0));&quot;&gt;&lt;b&gt;Pipeline #1&lt;/b&gt;&lt;/font&gt;" style="text;html=1;align=center;verticalAlign=middle;whiteSpace=wrap;rounded=0;strokeWidth=3;fontStyle=4" vertex="1" parent="XX8UF0sYBeRdhr-RkjJm-1">
          <mxGeometry x="150" y="490" width="90" height="30" as="geometry" />
        </mxCell>
        <mxCell id="1gFSFSBarL6wDGFCHjeQ-2" value="&lt;font style=&quot;font-size: 15px; color: light-dark(rgb(0, 0, 0), rgb(255, 0, 0));&quot;&gt;&lt;b style=&quot;&quot;&gt;Pipeline #2&lt;/b&gt;&lt;/font&gt;" style="text;html=1;align=center;verticalAlign=middle;whiteSpace=wrap;rounded=0;strokeWidth=3;fontStyle=4" vertex="1" parent="XX8UF0sYBeRdhr-RkjJm-1">
          <mxGeometry x="580" y="165" width="90" height="30" as="geometry" />
        </mxCell>
        <mxCell id="1gFSFSBarL6wDGFCHjeQ-3" value="" style="endArrow=none;html=1;rounded=0;dashed=1;strokeWidth=2;strokeColor=#FF0000;" edge="1" parent="XX8UF0sYBeRdhr-RkjJm-1">
          <mxGeometry width="50" height="50" relative="1" as="geometry">
            <mxPoint x="290" y="410" as="sourcePoint" />
            <mxPoint x="290" y="160" as="targetPoint" />
          </mxGeometry>
        </mxCell>
        <mxCell id="1gFSFSBarL6wDGFCHjeQ-4" value="" style="endArrow=none;html=1;rounded=0;dashed=1;strokeWidth=2;strokeColor=#FF0000;" edge="1" parent="XX8UF0sYBeRdhr-RkjJm-1">
          <mxGeometry width="50" height="50" relative="1" as="geometry">
            <mxPoint x="290" y="160" as="sourcePoint" />
            <mxPoint x="680" y="160" as="targetPoint" />
          </mxGeometry>
        </mxCell>
        <mxCell id="1gFSFSBarL6wDGFCHjeQ-5" value="" style="endArrow=none;html=1;rounded=0;dashed=1;strokeWidth=2;strokeColor=#FF0000;" edge="1" parent="XX8UF0sYBeRdhr-RkjJm-1">
          <mxGeometry width="50" height="50" relative="1" as="geometry">
            <mxPoint x="680" y="630" as="sourcePoint" />
            <mxPoint x="680" y="160" as="targetPoint" />
          </mxGeometry>
        </mxCell>
        <mxCell id="1gFSFSBarL6wDGFCHjeQ-7" value="" style="endArrow=none;html=1;rounded=0;dashed=1;strokeWidth=2;strokeColor=#FF0000;" edge="1" parent="XX8UF0sYBeRdhr-RkjJm-1">
          <mxGeometry width="50" height="50" relative="1" as="geometry">
            <mxPoint x="380" y="630" as="sourcePoint" />
            <mxPoint x="680" y="630" as="targetPoint" />
          </mxGeometry>
        </mxCell>
        <mxCell id="1gFSFSBarL6wDGFCHjeQ-8" value="" style="endArrow=none;html=1;rounded=0;dashed=1;strokeWidth=2;strokeColor=#FF0000;" edge="1" parent="XX8UF0sYBeRdhr-RkjJm-1">
          <mxGeometry width="50" height="50" relative="1" as="geometry">
            <mxPoint x="290" y="410" as="sourcePoint" />
            <mxPoint x="380" y="410" as="targetPoint" />
          </mxGeometry>
        </mxCell>
        <mxCell id="1gFSFSBarL6wDGFCHjeQ-9" value="" style="endArrow=none;html=1;rounded=0;dashed=1;strokeWidth=2;strokeColor=#FF0000;" edge="1" parent="XX8UF0sYBeRdhr-RkjJm-1">
          <mxGeometry width="50" height="50" relative="1" as="geometry">
            <mxPoint x="380" y="630" as="sourcePoint" />
            <mxPoint x="380" y="410" as="targetPoint" />
          </mxGeometry>
        </mxCell>
      </root>
    </mxGraphModel>
  </diagram>
  <diagram name="iterator-model" id="MoZNM0idNW_0_diHMmL9">
    <mxGraphModel dx="1426" dy="841" grid="1" gridSize="10" guides="1" tooltips="1" connect="1" arrows="1" fold="1" page="1" pageScale="1" pageWidth="827" pageHeight="1169" math="0" shadow="0">
      <root>
        <mxCell id="1Y-qvfnkSE7cEaBq1vJ6-0" />
        <mxCell id="1Y-qvfnkSE7cEaBq1vJ6-1" parent="1Y-qvfnkSE7cEaBq1vJ6-0" />
        <mxCell id="1Y-qvfnkSE7cEaBq1vJ6-2" value="" style="edgeStyle=orthogonalEdgeStyle;rounded=0;orthogonalLoop=1;jettySize=auto;html=1;strokeWidth=2;endArrow=none;startFill=1;startArrow=classic;" edge="1" parent="1Y-qvfnkSE7cEaBq1vJ6-1">
          <mxGeometry relative="1" as="geometry">
            <mxPoint x="400" y="240" as="sourcePoint" />
            <mxPoint x="400" y="320" as="targetPoint" />
          </mxGeometry>
        </mxCell>
        <mxCell id="1Y-qvfnkSE7cEaBq1vJ6-3" value="&lt;font face=&quot;Times New Roman&quot; style=&quot;font-size: 60px; line-height: 100%;&quot;&gt;π&lt;/font&gt;" style="rounded=0;whiteSpace=wrap;html=1;fillColor=#d5e8d4;strokeColor=#82b366;spacing=-2;labelPosition=center;verticalLabelPosition=middle;align=center;verticalAlign=middle;" vertex="1" parent="1Y-qvfnkSE7cEaBq1vJ6-1">
          <mxGeometry x="310" y="180" width="120" height="60" as="geometry" />
        </mxCell>
        <mxCell id="1Y-qvfnkSE7cEaBq1vJ6-4" value="" style="edgeStyle=orthogonalEdgeStyle;rounded=1;orthogonalLoop=1;jettySize=auto;html=1;curved=1;startArrow=classic;startFill=1;endArrow=none;strokeWidth=2;entryX=0.5;entryY=0;entryDx=0;entryDy=0;" edge="1" parent="1Y-qvfnkSE7cEaBq1vJ6-1" target="1Y-qvfnkSE7cEaBq1vJ6-6">
          <mxGeometry relative="1" as="geometry">
            <mxPoint x="390" y="380" as="sourcePoint" />
            <mxPoint x="510" y="490" as="targetPoint" />
            <Array as="points">
              <mxPoint x="390" y="430" />
              <mxPoint x="490" y="430" />
            </Array>
          </mxGeometry>
        </mxCell>
        <mxCell id="1Y-qvfnkSE7cEaBq1vJ6-5" value="&lt;div style=&quot;line-height: 19px; white-space: pre;&quot;&gt;&lt;font face=&quot;Times New Roman&quot; style=&quot;font-size: 60px; line-height: 100%;&quot;&gt;⋈&lt;/font&gt;&lt;/div&gt;" style="rounded=0;whiteSpace=wrap;html=1;fillColor=#f8cecc;strokeColor=#b85450;spacing=-2;labelPosition=center;verticalLabelPosition=middle;align=center;verticalAlign=middle;" vertex="1" parent="1Y-qvfnkSE7cEaBq1vJ6-1">
          <mxGeometry x="310" y="320" width="120" height="60" as="geometry" />
        </mxCell>
        <mxCell id="1Y-qvfnkSE7cEaBq1vJ6-6" value="&lt;div style=&quot;line-height: 19px; white-space: pre;&quot;&gt;&lt;div style=&quot;line-height: 19px;&quot;&gt;&lt;span&gt;&lt;font style=&quot;font-size: 60px; line-height: 100%;&quot; face=&quot;Times New Roman&quot;&gt;σ&lt;/font&gt;&lt;/span&gt;&lt;/div&gt;&lt;/div&gt;" style="rounded=0;whiteSpace=wrap;html=1;fillColor=#fff2cc;strokeColor=#d6b656;spacing=-2;labelPosition=center;verticalLabelPosition=middle;align=center;verticalAlign=middle;" vertex="1" parent="1Y-qvfnkSE7cEaBq1vJ6-1">
          <mxGeometry x="430" y="465" width="120" height="60" as="geometry" />
        </mxCell>
        <mxCell id="1Y-qvfnkSE7cEaBq1vJ6-7" value="&lt;div style=&quot;line-height: 19px; white-space: pre;&quot;&gt;&lt;div style=&quot;line-height: 19px;&quot;&gt;&lt;font face=&quot;Times New Roman&quot;&gt;&lt;span style=&quot;font-size: 60px; line-height: 100%;&quot;&gt;R&lt;/span&gt;&lt;/font&gt;&lt;/div&gt;&lt;/div&gt;" style="rounded=0;whiteSpace=wrap;html=1;fillColor=#dae8fc;strokeColor=#6c8ebf;spacing=-2;labelPosition=center;verticalLabelPosition=middle;align=center;verticalAlign=middle;" vertex="1" parent="1Y-qvfnkSE7cEaBq1vJ6-1">
          <mxGeometry x="190" y="535" width="120" height="60" as="geometry" />
        </mxCell>
        <mxCell id="1Y-qvfnkSE7cEaBq1vJ6-8" value="" style="edgeStyle=orthogonalEdgeStyle;rounded=0;orthogonalLoop=1;jettySize=auto;html=1;strokeWidth=2;exitX=0.75;exitY=0;exitDx=0;exitDy=0;" edge="1" parent="1Y-qvfnkSE7cEaBq1vJ6-1">
          <mxGeometry relative="1" as="geometry">
            <Array as="points" />
            <mxPoint x="513" y="560" as="sourcePoint" />
            <mxPoint x="513" y="525" as="targetPoint" />
          </mxGeometry>
        </mxCell>
        <mxCell id="1Y-qvfnkSE7cEaBq1vJ6-9" value="&lt;div style=&quot;line-height: 19px; white-space: pre;&quot;&gt;&lt;div style=&quot;line-height: 19px;&quot;&gt;&lt;font face=&quot;Times New Roman&quot;&gt;&lt;span style=&quot;font-size: 60px; line-height: 100%;&quot;&gt;S&lt;/span&gt;&lt;/font&gt;&lt;/div&gt;&lt;/div&gt;" style="rounded=0;whiteSpace=wrap;html=1;fillColor=#dae8fc;strokeColor=#6c8ebf;spacing=-2;labelPosition=center;verticalLabelPosition=middle;align=center;verticalAlign=middle;" vertex="1" parent="1Y-qvfnkSE7cEaBq1vJ6-1">
          <mxGeometry x="430" y="560" width="120" height="60" as="geometry" />
        </mxCell>
        <mxCell id="1Y-qvfnkSE7cEaBq1vJ6-10" style="edgeStyle=orthogonalEdgeStyle;rounded=1;orthogonalLoop=1;jettySize=auto;html=1;entryX=0.308;entryY=1.017;entryDx=0;entryDy=0;entryPerimeter=0;curved=1;strokeWidth=2;" edge="1" parent="1Y-qvfnkSE7cEaBq1vJ6-1" source="1Y-qvfnkSE7cEaBq1vJ6-7" target="1Y-qvfnkSE7cEaBq1vJ6-5">
          <mxGeometry relative="1" as="geometry">
            <Array as="points">
              <mxPoint x="290" y="458" />
              <mxPoint x="347" y="458" />
            </Array>
          </mxGeometry>
        </mxCell>
        <mxCell id="1Y-qvfnkSE7cEaBq1vJ6-11" value="" style="edgeStyle=orthogonalEdgeStyle;rounded=0;orthogonalLoop=1;jettySize=auto;html=1;strokeWidth=2;endArrow=none;startFill=1;startArrow=classic;" edge="1" parent="1Y-qvfnkSE7cEaBq1vJ6-1">
          <mxGeometry relative="1" as="geometry">
            <mxPoint x="390" y="130" as="sourcePoint" />
            <mxPoint x="390" y="180" as="targetPoint" />
          </mxGeometry>
        </mxCell>
        <mxCell id="1Y-qvfnkSE7cEaBq1vJ6-12" value="&lt;font style=&quot;font-size: 16px;&quot;&gt;&lt;b&gt;Fig.2. ITERATOR MODEL&lt;/b&gt;&lt;/font&gt;" style="text;html=1;align=center;verticalAlign=middle;resizable=0;points=[];autosize=1;strokeColor=none;fillColor=none;" vertex="1" parent="1Y-qvfnkSE7cEaBq1vJ6-1">
          <mxGeometry x="265" y="630" width="210" height="30" as="geometry" />
        </mxCell>
        <mxCell id="1Y-qvfnkSE7cEaBq1vJ6-13" value="&lt;font face=&quot;Helvetica&quot; style=&quot;font-size: 21px; color: rgb(0, 0, 0);&quot;&gt;&lt;b style=&quot;&quot;&gt;&lt;u style=&quot;&quot;&gt;single tuple&lt;/u&gt;&lt;/b&gt;&lt;/font&gt;" style="text;html=1;align=center;verticalAlign=middle;whiteSpace=wrap;rounded=0;" vertex="1" parent="1Y-qvfnkSE7cEaBq1vJ6-1">
          <mxGeometry x="290" y="470" width="140" height="30" as="geometry" />
        </mxCell>
        <mxCell id="1Y-qvfnkSE7cEaBq1vJ6-14" value="" style="edgeStyle=orthogonalEdgeStyle;rounded=0;orthogonalLoop=1;jettySize=auto;html=1;strokeWidth=2;endArrow=classic;startFill=0;startArrow=none;endFill=1;strokeColor=#FF0000;" edge="1" parent="1Y-qvfnkSE7cEaBq1vJ6-1">
          <mxGeometry relative="1" as="geometry">
            <mxPoint x="340" y="240" as="sourcePoint" />
            <mxPoint x="340" y="320" as="targetPoint" />
          </mxGeometry>
        </mxCell>
        <mxCell id="1Y-qvfnkSE7cEaBq1vJ6-15" style="edgeStyle=orthogonalEdgeStyle;rounded=1;orthogonalLoop=1;jettySize=auto;html=1;curved=1;strokeWidth=2;endArrow=none;startFill=1;startArrow=classic;exitX=0.608;exitY=0.083;exitDx=0;exitDy=0;exitPerimeter=0;strokeColor=#FF0000;entryX=0;entryY=0.75;entryDx=0;entryDy=0;" edge="1" parent="1Y-qvfnkSE7cEaBq1vJ6-1" target="1Y-qvfnkSE7cEaBq1vJ6-5">
          <mxGeometry relative="1" as="geometry">
            <mxPoint x="244.96000000000004" y="534.98" as="sourcePoint" />
            <mxPoint x="292" y="365" as="targetPoint" />
            <Array as="points">
              <mxPoint x="245" y="365" />
            </Array>
          </mxGeometry>
        </mxCell>
        <mxCell id="1Y-qvfnkSE7cEaBq1vJ6-16" value="Data Flow" style="text;html=1;align=center;verticalAlign=middle;resizable=0;points=[];autosize=1;strokeColor=none;fillColor=none;fontSize=16;" vertex="1" parent="1Y-qvfnkSE7cEaBq1vJ6-1">
          <mxGeometry x="110" y="180" width="100" height="30" as="geometry" />
        </mxCell>
        <mxCell id="1Y-qvfnkSE7cEaBq1vJ6-17" value="" style="endArrow=classic;html=1;rounded=0;fontSize=16;" edge="1" parent="1Y-qvfnkSE7cEaBq1vJ6-1">
          <mxGeometry width="50" height="50" relative="1" as="geometry">
            <mxPoint x="125" y="209" as="sourcePoint" />
            <mxPoint x="205" y="209" as="targetPoint" />
          </mxGeometry>
        </mxCell>
        <mxCell id="1Y-qvfnkSE7cEaBq1vJ6-18" value="" style="endArrow=classic;html=1;rounded=0;strokeColor=#FF0000;fontSize=16;" edge="1" parent="1Y-qvfnkSE7cEaBq1vJ6-1">
          <mxGeometry width="50" height="50" relative="1" as="geometry">
            <mxPoint x="125" y="180" as="sourcePoint" />
            <mxPoint x="205" y="180" as="targetPoint" />
          </mxGeometry>
        </mxCell>
        <mxCell id="1Y-qvfnkSE7cEaBq1vJ6-19" value="&lt;font style=&quot;color: rgb(255, 0, 0);&quot;&gt;Control Flow&lt;/font&gt;" style="text;html=1;align=center;verticalAlign=middle;resizable=0;points=[];autosize=1;strokeColor=none;fillColor=none;fontSize=16;" vertex="1" parent="1Y-qvfnkSE7cEaBq1vJ6-1">
          <mxGeometry x="110" y="150" width="110" height="30" as="geometry" />
        </mxCell>
        <mxCell id="1Y-qvfnkSE7cEaBq1vJ6-20" value="" style="edgeStyle=orthogonalEdgeStyle;rounded=0;orthogonalLoop=1;jettySize=auto;html=1;strokeWidth=2;endArrow=none;startFill=1;startArrow=classic;entryX=0.25;entryY=1;entryDx=0;entryDy=0;strokeColor=#FF0000;" edge="1" parent="1Y-qvfnkSE7cEaBq1vJ6-1">
          <mxGeometry relative="1" as="geometry">
            <Array as="points" />
            <mxPoint x="468" y="560" as="sourcePoint" />
            <mxPoint x="468" y="525" as="targetPoint" />
          </mxGeometry>
        </mxCell>
        <mxCell id="1Y-qvfnkSE7cEaBq1vJ6-21" value="" style="edgeStyle=orthogonalEdgeStyle;rounded=1;orthogonalLoop=1;jettySize=auto;html=1;curved=1;startArrow=none;startFill=0;endArrow=classic;strokeWidth=2;endFill=1;strokeColor=#FF0000;" edge="1" parent="1Y-qvfnkSE7cEaBq1vJ6-1">
          <mxGeometry relative="1" as="geometry">
            <mxPoint x="430" y="365" as="sourcePoint" />
            <mxPoint x="530" y="465" as="targetPoint" />
            <Array as="points">
              <mxPoint x="530" y="365" />
            </Array>
          </mxGeometry>
        </mxCell>
      </root>
    </mxGraphModel>
  </diagram>
  <diagram name="vectorized-model" id="-C2dhwT8ANrKP_gKSgrW">
    <mxGraphModel dx="1426" dy="841" grid="1" gridSize="10" guides="1" tooltips="1" connect="1" arrows="1" fold="1" page="1" pageScale="1" pageWidth="827" pageHeight="1169" math="0" shadow="0">
      <root>
        <mxCell id="q4k1nQIlywhlbtpMyiat-0" />
        <mxCell id="q4k1nQIlywhlbtpMyiat-1" parent="q4k1nQIlywhlbtpMyiat-0" />
        <mxCell id="q4k1nQIlywhlbtpMyiat-2" value="" style="edgeStyle=orthogonalEdgeStyle;rounded=0;orthogonalLoop=1;jettySize=auto;html=1;strokeWidth=2;endArrow=none;startFill=1;startArrow=classic;" edge="1" parent="q4k1nQIlywhlbtpMyiat-1">
          <mxGeometry relative="1" as="geometry">
            <mxPoint x="400" y="240" as="sourcePoint" />
            <mxPoint x="400" y="320" as="targetPoint" />
          </mxGeometry>
        </mxCell>
        <mxCell id="q4k1nQIlywhlbtpMyiat-3" value="&lt;font face=&quot;Times New Roman&quot; style=&quot;font-size: 60px; line-height: 100%;&quot;&gt;π&lt;/font&gt;" style="rounded=0;whiteSpace=wrap;html=1;fillColor=#d5e8d4;strokeColor=#82b366;spacing=-2;labelPosition=center;verticalLabelPosition=middle;align=center;verticalAlign=middle;" vertex="1" parent="q4k1nQIlywhlbtpMyiat-1">
          <mxGeometry x="310" y="180" width="120" height="60" as="geometry" />
        </mxCell>
        <mxCell id="q4k1nQIlywhlbtpMyiat-5" value="" style="edgeStyle=orthogonalEdgeStyle;rounded=1;orthogonalLoop=1;jettySize=auto;html=1;curved=1;startArrow=classic;startFill=1;endArrow=none;strokeWidth=2;entryX=0.5;entryY=0;entryDx=0;entryDy=0;" edge="1" parent="q4k1nQIlywhlbtpMyiat-1" target="q4k1nQIlywhlbtpMyiat-7">
          <mxGeometry relative="1" as="geometry">
            <mxPoint x="390" y="380" as="sourcePoint" />
            <mxPoint x="510" y="490" as="targetPoint" />
            <Array as="points">
              <mxPoint x="390" y="430" />
              <mxPoint x="490" y="430" />
            </Array>
          </mxGeometry>
        </mxCell>
        <mxCell id="q4k1nQIlywhlbtpMyiat-6" value="&lt;div style=&quot;line-height: 19px; white-space: pre;&quot;&gt;&lt;font face=&quot;Times New Roman&quot; style=&quot;font-size: 60px; line-height: 100%;&quot;&gt;⋈&lt;/font&gt;&lt;/div&gt;" style="rounded=0;whiteSpace=wrap;html=1;fillColor=#f8cecc;strokeColor=#b85450;spacing=-2;labelPosition=center;verticalLabelPosition=middle;align=center;verticalAlign=middle;" vertex="1" parent="q4k1nQIlywhlbtpMyiat-1">
          <mxGeometry x="310" y="320" width="120" height="60" as="geometry" />
        </mxCell>
        <mxCell id="q4k1nQIlywhlbtpMyiat-7" value="&lt;div style=&quot;line-height: 19px; white-space: pre;&quot;&gt;&lt;div style=&quot;line-height: 19px;&quot;&gt;&lt;span&gt;&lt;font style=&quot;font-size: 60px; line-height: 100%;&quot; face=&quot;Times New Roman&quot;&gt;σ&lt;/font&gt;&lt;/span&gt;&lt;/div&gt;&lt;/div&gt;" style="rounded=0;whiteSpace=wrap;html=1;fillColor=#fff2cc;strokeColor=#d6b656;spacing=-2;labelPosition=center;verticalLabelPosition=middle;align=center;verticalAlign=middle;" vertex="1" parent="q4k1nQIlywhlbtpMyiat-1">
          <mxGeometry x="430" y="465" width="120" height="60" as="geometry" />
        </mxCell>
        <mxCell id="q4k1nQIlywhlbtpMyiat-9" value="&lt;div style=&quot;line-height: 19px; white-space: pre;&quot;&gt;&lt;div style=&quot;line-height: 19px;&quot;&gt;&lt;font face=&quot;Times New Roman&quot;&gt;&lt;span style=&quot;font-size: 60px; line-height: 100%;&quot;&gt;R&lt;/span&gt;&lt;/font&gt;&lt;/div&gt;&lt;/div&gt;" style="rounded=0;whiteSpace=wrap;html=1;fillColor=#dae8fc;strokeColor=#6c8ebf;spacing=-2;labelPosition=center;verticalLabelPosition=middle;align=center;verticalAlign=middle;" vertex="1" parent="q4k1nQIlywhlbtpMyiat-1">
          <mxGeometry x="190" y="535" width="120" height="60" as="geometry" />
        </mxCell>
        <mxCell id="q4k1nQIlywhlbtpMyiat-10" value="" style="edgeStyle=orthogonalEdgeStyle;rounded=0;orthogonalLoop=1;jettySize=auto;html=1;strokeWidth=2;exitX=0.75;exitY=0;exitDx=0;exitDy=0;" edge="1" parent="q4k1nQIlywhlbtpMyiat-1">
          <mxGeometry relative="1" as="geometry">
            <Array as="points" />
            <mxPoint x="513" y="560" as="sourcePoint" />
            <mxPoint x="513" y="525" as="targetPoint" />
          </mxGeometry>
        </mxCell>
        <mxCell id="q4k1nQIlywhlbtpMyiat-11" value="&lt;div style=&quot;line-height: 19px; white-space: pre;&quot;&gt;&lt;div style=&quot;line-height: 19px;&quot;&gt;&lt;font face=&quot;Times New Roman&quot;&gt;&lt;span style=&quot;font-size: 60px; line-height: 100%;&quot;&gt;S&lt;/span&gt;&lt;/font&gt;&lt;/div&gt;&lt;/div&gt;" style="rounded=0;whiteSpace=wrap;html=1;fillColor=#dae8fc;strokeColor=#6c8ebf;spacing=-2;labelPosition=center;verticalLabelPosition=middle;align=center;verticalAlign=middle;" vertex="1" parent="q4k1nQIlywhlbtpMyiat-1">
          <mxGeometry x="430" y="560" width="120" height="60" as="geometry" />
        </mxCell>
        <mxCell id="q4k1nQIlywhlbtpMyiat-13" style="edgeStyle=orthogonalEdgeStyle;rounded=1;orthogonalLoop=1;jettySize=auto;html=1;entryX=0.308;entryY=1.017;entryDx=0;entryDy=0;entryPerimeter=0;curved=1;strokeWidth=2;exitX=0.825;exitY=0.017;exitDx=0;exitDy=0;exitPerimeter=0;" edge="1" parent="q4k1nQIlywhlbtpMyiat-1">
          <mxGeometry relative="1" as="geometry">
            <mxPoint x="280" y="535" as="sourcePoint" />
            <mxPoint x="337.96000000000004" y="380" as="targetPoint" />
            <Array as="points">
              <mxPoint x="280" y="449" />
              <mxPoint x="338" y="449" />
            </Array>
          </mxGeometry>
        </mxCell>
        <mxCell id="q4k1nQIlywhlbtpMyiat-14" value="" style="edgeStyle=orthogonalEdgeStyle;rounded=0;orthogonalLoop=1;jettySize=auto;html=1;strokeWidth=2;endArrow=none;startFill=1;startArrow=classic;" edge="1" parent="q4k1nQIlywhlbtpMyiat-1">
          <mxGeometry relative="1" as="geometry">
            <mxPoint x="390" y="130" as="sourcePoint" />
            <mxPoint x="390" y="180" as="targetPoint" />
          </mxGeometry>
        </mxCell>
        <mxCell id="q4k1nQIlywhlbtpMyiat-15" value="&lt;font style=&quot;font-size: 16px;&quot;&gt;&lt;b&gt;Fig.3. VECTORIZED MODEL&lt;/b&gt;&lt;/font&gt;" style="text;html=1;align=center;verticalAlign=middle;resizable=0;points=[];autosize=1;strokeColor=none;fillColor=none;" vertex="1" parent="q4k1nQIlywhlbtpMyiat-1">
          <mxGeometry x="255" y="630" width="230" height="30" as="geometry" />
        </mxCell>
        <mxCell id="q4k1nQIlywhlbtpMyiat-16" value="&lt;font face=&quot;Helvetica&quot; style=&quot;font-size: 21px; color: rgb(0, 0, 0);&quot;&gt;&lt;b style=&quot;&quot;&gt;&lt;u style=&quot;&quot;&gt;batch tuples&lt;/u&gt;&lt;/b&gt;&lt;/font&gt;" style="text;html=1;align=center;verticalAlign=middle;whiteSpace=wrap;rounded=0;" vertex="1" parent="q4k1nQIlywhlbtpMyiat-1">
          <mxGeometry x="280" y="480" width="140" height="30" as="geometry" />
        </mxCell>
        <mxCell id="pxGOqFH_jREVvHyQ3rBx-0" value="" style="edgeStyle=orthogonalEdgeStyle;rounded=0;orthogonalLoop=1;jettySize=auto;html=1;strokeWidth=2;endArrow=classic;startFill=0;startArrow=none;endFill=1;strokeColor=#FF0000;" edge="1" parent="q4k1nQIlywhlbtpMyiat-1">
          <mxGeometry relative="1" as="geometry">
            <mxPoint x="340" y="240" as="sourcePoint" />
            <mxPoint x="340" y="320" as="targetPoint" />
          </mxGeometry>
        </mxCell>
        <mxCell id="pxGOqFH_jREVvHyQ3rBx-1" style="edgeStyle=orthogonalEdgeStyle;rounded=1;orthogonalLoop=1;jettySize=auto;html=1;curved=1;strokeWidth=2;endArrow=none;startFill=1;startArrow=classic;exitX=0.608;exitY=0.083;exitDx=0;exitDy=0;exitPerimeter=0;strokeColor=#FF0000;entryX=0;entryY=0.75;entryDx=0;entryDy=0;" edge="1" parent="q4k1nQIlywhlbtpMyiat-1" target="q4k1nQIlywhlbtpMyiat-6">
          <mxGeometry relative="1" as="geometry">
            <mxPoint x="244.96000000000004" y="534.98" as="sourcePoint" />
            <mxPoint x="292" y="365" as="targetPoint" />
            <Array as="points">
              <mxPoint x="245" y="365" />
            </Array>
          </mxGeometry>
        </mxCell>
        <mxCell id="pxGOqFH_jREVvHyQ3rBx-2" value="Data Flow" style="text;html=1;align=center;verticalAlign=middle;resizable=0;points=[];autosize=1;strokeColor=none;fillColor=none;fontSize=16;" vertex="1" parent="q4k1nQIlywhlbtpMyiat-1">
          <mxGeometry x="110" y="180" width="100" height="30" as="geometry" />
        </mxCell>
        <mxCell id="pxGOqFH_jREVvHyQ3rBx-3" value="" style="endArrow=classic;html=1;rounded=0;fontSize=16;" edge="1" parent="q4k1nQIlywhlbtpMyiat-1">
          <mxGeometry width="50" height="50" relative="1" as="geometry">
            <mxPoint x="125" y="209" as="sourcePoint" />
            <mxPoint x="205" y="209" as="targetPoint" />
          </mxGeometry>
        </mxCell>
        <mxCell id="pxGOqFH_jREVvHyQ3rBx-4" value="" style="endArrow=classic;html=1;rounded=0;strokeColor=#FF0000;fontSize=16;" edge="1" parent="q4k1nQIlywhlbtpMyiat-1">
          <mxGeometry width="50" height="50" relative="1" as="geometry">
            <mxPoint x="125" y="180" as="sourcePoint" />
            <mxPoint x="205" y="180" as="targetPoint" />
          </mxGeometry>
        </mxCell>
        <mxCell id="pxGOqFH_jREVvHyQ3rBx-5" value="&lt;font style=&quot;color: rgb(255, 0, 0);&quot;&gt;Control Flow&lt;/font&gt;" style="text;html=1;align=center;verticalAlign=middle;resizable=0;points=[];autosize=1;strokeColor=none;fillColor=none;fontSize=16;" vertex="1" parent="q4k1nQIlywhlbtpMyiat-1">
          <mxGeometry x="110" y="150" width="110" height="30" as="geometry" />
        </mxCell>
        <mxCell id="pxGOqFH_jREVvHyQ3rBx-6" value="" style="edgeStyle=orthogonalEdgeStyle;rounded=0;orthogonalLoop=1;jettySize=auto;html=1;strokeWidth=2;endArrow=none;startFill=1;startArrow=classic;entryX=0.25;entryY=1;entryDx=0;entryDy=0;strokeColor=#FF0000;" edge="1" parent="q4k1nQIlywhlbtpMyiat-1">
          <mxGeometry relative="1" as="geometry">
            <Array as="points" />
            <mxPoint x="468" y="560" as="sourcePoint" />
            <mxPoint x="468" y="525" as="targetPoint" />
          </mxGeometry>
        </mxCell>
        <mxCell id="pxGOqFH_jREVvHyQ3rBx-7" value="" style="edgeStyle=orthogonalEdgeStyle;rounded=1;orthogonalLoop=1;jettySize=auto;html=1;curved=1;startArrow=none;startFill=0;endArrow=classic;strokeWidth=2;endFill=1;strokeColor=#FF0000;" edge="1" parent="q4k1nQIlywhlbtpMyiat-1">
          <mxGeometry relative="1" as="geometry">
            <mxPoint x="430" y="365" as="sourcePoint" />
            <mxPoint x="530" y="465" as="targetPoint" />
            <Array as="points">
              <mxPoint x="530" y="365" />
            </Array>
          </mxGeometry>
        </mxCell>
      </root>
    </mxGraphModel>
  </diagram>
</mxfile>
